<svg xmlns="http://www.w3.org/2000/svg" viewBox="0 0 26.804 28"><defs><style>.a{fill:#eafffa;}</style></defs><path class="a" d="M42.651,23.981l2.406,1.389a.679.679,0,0,1,.308.789,13.978,13.978,0,0,1-3.087,5.34.678.678,0,0,1-.837.127l-2.4-1.388a10.815,10.815,0,0,1-3.43,1.983V35a.678.678,0,0,1-.529.661,14.111,14.111,0,0,1-6.166,0A.679.679,0,0,1,28.381,35V32.22a10.814,10.814,0,0,1-3.43-1.983l-2.4,1.388a.678.678,0,0,1-.837-.127,13.979,13.979,0,0,1-3.087-5.34.679.679,0,0,1,.308-.789l2.406-1.389a10.922,10.922,0,0,1,0-3.963l-2.406-1.389a.679.679,0,0,1-.308-.789A13.978,13.978,0,0,1,21.71,12.5a.678.678,0,0,1,.837-.127l2.4,1.388a10.815,10.815,0,0,1,3.43-1.983V9a.678.678,0,0,1,.529-.662,14.111,14.111,0,0,1,6.166,0A.679.679,0,0,1,35.607,9v2.777a10.814,10.814,0,0,1,3.43,1.983l2.4-1.388a.678.678,0,0,1,.837.127,13.979,13.979,0,0,1,3.087,5.34.679.679,0,0,1-.308.789l-2.406,1.389a10.923,10.923,0,0,1,0,3.963ZM36.51,22a4.516,4.516,0,1,0-4.516,4.516A4.521,4.521,0,0,0,36.51,22Z" transform="translate(-18.592 -7.999)"/></svg>