<svg id="ee86a922-4682-49f3-aa73-f9d95d1dbb1c" data-name="Layer 1" xmlns="http://www.w3.org/2000/svg" xmlns:xlink="http://www.w3.org/1999/xlink" viewBox="0 0 1125 1098"><defs><clipPath id="a80914c7-ba0a-4bbc-b518-1955c80c64f5"><rect x="-2.5" y="-2" width="1123.5" height="1101" style="fill:none"/></clipPath></defs><title>error</title><g style="clip-path:url(#a80914c7-ba0a-4bbc-b518-1955c80c64f5)"><path d="M-103.7,203.06s38.88,584.28,422,702.86,601.63-409.65,1015.59,55.22,96-2097.07,96-2097.07H-261Z" style="fill:#17b9a2;stroke:#fff;stroke-width:10px;opacity:0.6000000238418579;isolation:isolate"/><path d="M-53.95,696.79S75,514.71,421.23,554.47s438.7,249.46,836.84,222.67,435.14-308.93,435.14-308.93L1341-948.68-126.1-996.47" style="fill:#fdd573;stroke:#fff;stroke-width:10px;opacity:0.8999999761581421;isolation:isolate"/><path d="M-15.74,758.77C3.17,486.45,290,397.33,479.29,478.83s407.38,290.19,655,0,117.2-1063.22,117.2-1063.22L-159.1-613.58-341.64,160.06" style="fill:#17b9a2;stroke:#fff;stroke-width:10px"/><ellipse cx="559.55" cy="0.96" rx="197.37" ry="198.16" style="fill:#17b9a2"/><ellipse cx="559.55" cy="0.96" rx="212.32" ry="213.17" style="fill:none;stroke:#fff;stroke-linecap:round;stroke-width:10px"/><line x1="-1.16" y1="5.46" x2="1120.26" y2="5.46" style="fill:none;stroke:#fff;stroke-width:10px"/><ellipse cx="559.55" cy="0.96" rx="2.99" ry="3" style="fill:none"/><ellipse cx="559.55" cy="0.96" rx="17.94" ry="18.01" style="fill:none;stroke:#fff;stroke-linecap:round;stroke-width:10px"/></g></svg>