<svg xmlns="http://www.w3.org/2000/svg" viewBox="0 0 28 28"><defs><style>.a{fill:#eafffa;}</style></defs><path class="a" d="M36,22A14,14,0,1,1,22,8,14,14,0,0,1,36,22Zm-2.71,0v-.016l-1.471,1.284-3.538-3.3.929-4.762,1.936.173a11.314,11.314,0,0,0-5.685-4.129l.771,1.8L22,15.4l-4.231-2.344.771-1.8a11.315,11.315,0,0,0-5.685,4.129l1.951-.173.914,4.762-3.538,3.3L10.71,21.984V22a11.206,11.206,0,0,0,2.172,6.661l.435-1.914,4.806.59,2.049,4.393-1.688,1a11.394,11.394,0,0,0,7.032,0l-1.688-1,2.049-4.393,4.806-.59.435,1.914A11.206,11.206,0,0,0,33.29,22ZM19.285,25.927,17.6,20.773,22,17.582l4.4,3.191-1.672,5.155Z" transform="translate(-8 -8)"/></svg>