<svg xmlns="http://www.w3.org/2000/svg" viewBox="0 0 31.251 29.256"><defs><style>.a{fill:#eafffa;}</style></defs><g transform="translate(-2072 73.329)"><path class="a" d="M6.236,4.687A2.344,2.344,0,1,0,3.892,2.344,2.344,2.344,0,0,0,6.236,4.687Zm18.75,0a2.344,2.344,0,1,0-2.344-2.344A2.344,2.344,0,0,0,24.986,4.687Zm6.138,18.169-2.148-5.371-2.007,2.266-.1.889,1.353,3.379a1.561,1.561,0,0,0,1.45.981,1.518,1.518,0,0,0,.581-.112,1.562,1.562,0,0,0,.869-2.031Zm-1.67-10.244L28.55,8.7A3.164,3.164,0,0,0,26.719,6.5a3.013,3.013,0,0,0-2.739.161,5.35,5.35,0,0,0-2.349,2.9l-.552,1.655-.781.5H10.923l-.786-.5L9.585,9.565a5.311,5.311,0,0,0-2.349-2.9A3.014,3.014,0,0,0,4.5,6.5,3.164,3.164,0,0,0,2.666,8.7l-.9,3.916a3.128,3.128,0,0,0,.7,2.769l3.281,3.706.493,4.521A1.564,1.564,0,0,0,7.8,25c.059,0,.112,0,.171-.01a1.56,1.56,0,0,0,1.382-1.724l-.493-4.531A3.121,3.121,0,0,0,8.1,17.026L5.982,14.634,6.841,11.2l.332,1a3.158,3.158,0,0,0,1.2,1.592l2.5,1.587a2.079,2.079,0,0,0,.84.244h7.812a2.079,2.079,0,0,0,.84-.244l2.5-1.587a3.138,3.138,0,0,0,1.2-1.592l.332-1,.859,3.433-2.114,2.393a3.121,3.121,0,0,0-.762,1.709l-.493,4.531a1.563,1.563,0,0,0,1.382,1.724c.059,0,.112.01.171.01a1.563,1.563,0,0,0,1.553-1.392l.493-4.521,3.281-3.706A3.143,3.143,0,0,0,29.454,12.612ZM2.246,17.485.1,22.856A1.562,1.562,0,0,0,3,24.019L4.351,20.64l-.1-.889L2.246,17.485Z" transform="translate(2072.015 -69.072)"/><path class="a" d="M3.516,2.109A2.109,2.109,0,1,1,5.625,4.219,2.109,2.109,0,0,1,3.516,2.109Zm7.46.04a.937.937,0,0,0-1.326,0L7.112,4.687H4.139L1.6,2.15A.937.937,0,1,0,.275,3.475L3.047,6.248v7.815A.938.938,0,0,0,3.985,15h.469a.938.938,0,0,0,.937-.938V10.781H5.86v3.281A.938.938,0,0,0,6.8,15h.469a.938.938,0,0,0,.938-.938V6.248l2.772-2.772A.937.937,0,0,0,10.976,2.15Z" transform="translate(2081.93 -73.329)"/></g></svg>