<?xml version="1.0" encoding="utf-8"?>
<!-- Generator: Adobe Illustrator 23.0.1, SVG Export Plug-In . SVG Version: 6.00 Build 0)  -->
<svg version="1.1" id="graphics" xmlns="http://www.w3.org/2000/svg" xmlns:xlink="http://www.w3.org/1999/xlink" x="0px" y="0px"
	 viewBox="0 0 690.4 626.6" style="enable-background:new 0 0 690.4 626.6;" xml:space="preserve">
<style type="text/css">
	.st0{opacity:0.6;fill:#17B9A2;stroke:#FFFFFF;stroke-width:10;enable-background:new    ;}
	.st1{opacity:0.9;fill:#FDD573;stroke:#FFFFFF;stroke-width:10;enable-background:new    ;}
	.st2{fill:#17B9A2;stroke:#FFFFFF;stroke-width:10;}
</style>
<path id="bottom" class="st0" d="M-66.7,103c0,0,24.9,372,269.7,447.5s384.6-260.7,649.2,35.2s61.6-1335.2,61.6-1335.2h-1081
	L-66.7,103z"/>
<path id="middle" class="st1" d="M-34.8,417.2c0,0,82.4-115.8,303.7-90.6c221.4,25.2,280.4,158.9,534.9,141.8
	c254.4-17,278.1-196.7,278.1-196.7L856.8-630.3L-81-660.9"/>
<path id="top" class="st2" d="M-10.5,456.8c12-173.4,195.4-230.2,316.4-178.2s260.4,184.8,418.6,0s74.9-676.9,74.9-676.9L-102.1-417
	L-218.7,75.6"/>
</svg>
