<?xml version="1.0" encoding="utf-8"?>
<!-- Generator: Adobe Illustrator 23.0.1, SVG Export Plug-In . SVG Version: 6.00 Build 0)  -->
<svg version="1.1" id="graphics" xmlns="http://www.w3.org/2000/svg" xmlns:xlink="http://www.w3.org/1999/xlink" x="0px" y="0px"
	 viewBox="0 0 690.4 727.4" style="enable-background:new 0 0 690.4 727.4;" xml:space="preserve">
<style type="text/css">
	.st0{opacity:0.6;fill:#17B9A2;stroke:#FFFFFF;stroke-width:10;enable-background:new    ;}
	.st1{opacity:0.9;fill:#FDD573;stroke:#FFFFFF;stroke-width:10;enable-background:new    ;}
	.st2{fill:#17B9A2;stroke:#FFFFFF;stroke-width:10;}
</style>
<path id="bottom" class="st0" d="M84.4,451c0,0,13,194.6,141.1,234.1s201.2-136.4,339.6,18.4S597.3,5,597.3,5H31.8L84.4,451z"/>
<path id="middle" class="st1" d="M101.1,615.4c0,0,43.1-60.6,158.9-47.4c115.8,13.2,146.7,83.1,279.8,74.2
	c133.1-8.9,145.5-102.9,145.5-102.9L567.5,67.4L76.9,51.4"/>
<path id="top" class="st2" d="M113.8,636.1c6.3-90.7,102.2-120.4,165.5-93.2s136.2,96.7,219,0s39.2-354.1,39.2-354.1L65.9,179
	l-61,257.7"/>
</svg>
